<svg xmlns="http://www.w3.org/2000/svg" width="22.69" height="26" viewBox="0 0 22.69 26">
  <g id="Groupe_8" data-name="Groupe 8" transform="translate(-20)">
    <g id="Groupe_21" data-name="Groupe 21" transform="translate(20)">
      <path id="Tracé_79" data-name="Tracé 79" d="M9.218,3.1a8.511,8.511,0,0,0-6.382,8.241v5.672a.946.946,0,0,1-.945.946,1.891,1.891,0,1,0,0,3.781h18.9a1.891,1.891,0,1,0,0-3.781.943.943,0,0,1-.945-.946V11.345A8.512,8.512,0,0,0,13.471,3.1V2.127a2.126,2.126,0,1,0-4.253,0ZM8.036,22.691h6.618a3.309,3.309,0,1,1-6.618,0Z" fill="#e3634b" fill-rule="evenodd"/>
    </g>
  </g>
</svg>